<?xml version="1.0" standalone="no"?>
<!DOCTYPE svg PUBLIC "-//W3C//DTD SVG 20010904//EN"
 "http://www.w3.org/TR/2001/REC-SVG-20010904/DTD/svg10.dtd">
<svg version="1.0" xmlns="http://www.w3.org/2000/svg"
 width="700.000000pt" height="700.000000pt" viewBox="0 0 700.000000 700.000000"
 preserveAspectRatio="xMidYMid meet">
<metadata>
Created by potrace 1.14, written by Peter Selinger 2001-2017
</metadata>
<g transform="translate(0.000000,700.000000) scale(0.100000,-0.100000)"
fill="#000000" stroke="none">
<path d="M791 5648 c-63 -14 -125 -79 -140 -147 -16 -73 -16 -2249 0 -2322 16
-72 76 -132 148 -148 35 -7 248 -11 646 -11 l595 0 0 -770 c0 -527 4 -785 11
-821 16 -72 76 -132 148 -148 74 -16 3928 -16 4002 0 72 16 132 76 148 148 16
73 16 2249 0 2322 -16 72 -76 132 -148 148 -35 7 -248 11 -646 11 l-595 0 0
770 c0 527 -4 785 -11 821 -16 72 -76 132 -148 148 -68 14 -3944 14 -4010 -1z
m4026 -130 l23 -21 0 -794 0 -793 -1295 0 c-912 0 -1309 -3 -1346 -11 -72 -16
-132 -76 -148 -148 -7 -31 -11 -164 -11 -331 l0 -280 -617 0 -617 0 -23 22
-23 21 0 1156 0 1155 22 23 21 23 1996 0 1995 0 23 -22z m1400 -1750 l23 -21
0 -1156 0 -1155 -22 -23 -21 -23 -1996 0 -1995 0 -23 22 -23 21 0 1156 0 1155
22 23 21 23 1996 0 1995 0 23 -22z"/>
</g>
</svg>
